<svg width="542" height="162" viewBox="0 0 542 162" fill="none" xmlns="http://www.w3.org/2000/svg">
<path d="M541 129L78 129" stroke="#CBD5E1" stroke-dasharray="3 3"/>
<path d="M541 53L78 53" stroke="#CBD5E1" stroke-dasharray="3 3"/>
<path d="M541 91L78 91" stroke="#CBD5E1" stroke-dasharray="3 3"/>
<path d="M541 15L78 15" stroke="#CBD5E1" stroke-dasharray="3 3"/>
<path d="M2.67285 9.40137H3.5752C4.01725 9.40137 4.38184 9.32845 4.66895 9.18262C4.96061 9.03223 5.17708 8.82943 5.31836 8.57422C5.46419 8.31445 5.53711 8.02279 5.53711 7.69922C5.53711 7.31641 5.47331 6.99512 5.3457 6.73535C5.2181 6.47559 5.02669 6.27962 4.77148 6.14746C4.51628 6.0153 4.19271 5.94922 3.80078 5.94922C3.44531 5.94922 3.13086 6.01986 2.85742 6.16113C2.58854 6.29785 2.37663 6.49382 2.22168 6.74902C2.07129 7.00423 1.99609 7.30501 1.99609 7.65137H0.731445C0.731445 7.14551 0.859049 6.68522 1.11426 6.27051C1.36947 5.85579 1.72721 5.52539 2.1875 5.2793C2.65234 5.0332 3.1901 4.91016 3.80078 4.91016C4.40234 4.91016 4.92871 5.01725 5.37988 5.23145C5.83105 5.44108 6.18197 5.75553 6.43262 6.1748C6.68327 6.58952 6.80859 7.10677 6.80859 7.72656C6.80859 7.97721 6.74935 8.24609 6.63086 8.5332C6.51693 8.81576 6.33691 9.08008 6.09082 9.32617C5.84928 9.57227 5.53483 9.77507 5.14746 9.93457C4.76009 10.0895 4.29525 10.167 3.75293 10.167H2.67285V9.40137ZM2.67285 10.4404V9.68164H3.75293C4.38639 9.68164 4.91048 9.75684 5.3252 9.90723C5.73991 10.0576 6.06576 10.2581 6.30273 10.5088C6.54427 10.7594 6.71289 11.0352 6.80859 11.3359C6.90885 11.6322 6.95898 11.9284 6.95898 12.2246C6.95898 12.6895 6.87923 13.1019 6.71973 13.4619C6.56478 13.8219 6.34375 14.1273 6.05664 14.3779C5.77409 14.6286 5.44141 14.8177 5.05859 14.9453C4.67578 15.0729 4.25879 15.1367 3.80762 15.1367C3.37467 15.1367 2.9668 15.0752 2.58398 14.9521C2.20573 14.8291 1.87077 14.6514 1.5791 14.4189C1.28743 14.182 1.05957 13.8926 0.895508 13.5508C0.731445 13.2044 0.649414 12.8102 0.649414 12.3682H1.91406C1.91406 12.7145 1.98926 13.0176 2.13965 13.2773C2.2946 13.5371 2.51335 13.7399 2.7959 13.8857C3.08301 14.027 3.42025 14.0977 3.80762 14.0977C4.19499 14.0977 4.52767 14.0316 4.80566 13.8994C5.08822 13.7627 5.30469 13.5576 5.45508 13.2842C5.61003 13.0107 5.6875 12.6667 5.6875 12.252C5.6875 11.8372 5.60091 11.4977 5.42773 11.2334C5.25456 10.9645 5.00846 10.7663 4.68945 10.6387C4.375 10.5065 4.00358 10.4404 3.5752 10.4404H2.67285ZM10.1172 4.5V5.375C10.1172 5.64844 10.0693 5.93783 9.97363 6.24316C9.88249 6.54395 9.74805 6.83561 9.57031 7.11816C9.39258 7.39616 9.17839 7.63997 8.92773 7.84961L8.20312 7.35059C8.41732 7.0498 8.5791 6.74219 8.68848 6.42773C8.80241 6.10872 8.85938 5.76465 8.85938 5.39551V4.5H10.1172ZM17.7529 9.23047V10.748C17.7529 11.5638 17.68 12.252 17.5342 12.8125C17.3883 13.373 17.1787 13.8242 16.9053 14.166C16.6318 14.5078 16.3014 14.7562 15.9141 14.9111C15.5312 15.0615 15.0983 15.1367 14.6152 15.1367C14.2324 15.1367 13.8792 15.0889 13.5557 14.9932C13.2321 14.8975 12.9404 14.7448 12.6807 14.5352C12.4255 14.321 12.2067 14.043 12.0244 13.7012C11.8421 13.3594 11.7031 12.9447 11.6074 12.457C11.5117 11.9694 11.4639 11.3997 11.4639 10.748V9.23047C11.4639 8.41471 11.5368 7.73112 11.6826 7.17969C11.833 6.62826 12.0449 6.1862 12.3184 5.85352C12.5918 5.51628 12.9199 5.27474 13.3027 5.12891C13.6901 4.98307 14.123 4.91016 14.6016 4.91016C14.9889 4.91016 15.3444 4.95801 15.668 5.05371C15.9961 5.14486 16.2878 5.29297 16.543 5.49805C16.7982 5.69857 17.0146 5.96745 17.1924 6.30469C17.3747 6.63737 17.5137 7.04525 17.6094 7.52832C17.7051 8.01139 17.7529 8.57878 17.7529 9.23047ZM16.4814 10.9531V9.01855C16.4814 8.57194 16.4541 8.18001 16.3994 7.84277C16.3493 7.50098 16.2741 7.20931 16.1738 6.96777C16.0736 6.72624 15.946 6.53027 15.791 6.37988C15.6406 6.22949 15.4652 6.12012 15.2646 6.05176C15.0687 5.97884 14.8477 5.94238 14.6016 5.94238C14.3008 5.94238 14.0342 5.99935 13.8018 6.11328C13.5693 6.22266 13.3734 6.39811 13.2139 6.63965C13.0589 6.88118 12.9404 7.19792 12.8584 7.58984C12.7764 7.98177 12.7354 8.45801 12.7354 9.01855V10.9531C12.7354 11.3997 12.7604 11.7939 12.8105 12.1357C12.8652 12.4775 12.945 12.7738 13.0498 13.0244C13.1546 13.2705 13.2822 13.4733 13.4326 13.6328C13.583 13.7923 13.7562 13.9108 13.9521 13.9883C14.1527 14.0612 14.3737 14.0977 14.6152 14.0977C14.9251 14.0977 15.1963 14.0384 15.4287 13.9199C15.6611 13.8014 15.8548 13.6169 16.0098 13.3662C16.1693 13.111 16.2878 12.7852 16.3652 12.3887C16.4427 11.9876 16.4814 11.5091 16.4814 10.9531ZM25.6279 9.23047V10.748C25.6279 11.5638 25.555 12.252 25.4092 12.8125C25.2633 13.373 25.0537 13.8242 24.7803 14.166C24.5068 14.5078 24.1764 14.7562 23.7891 14.9111C23.4062 15.0615 22.9733 15.1367 22.4902 15.1367C22.1074 15.1367 21.7542 15.0889 21.4307 14.9932C21.1071 14.8975 20.8154 14.7448 20.5557 14.5352C20.3005 14.321 20.0817 14.043 19.8994 13.7012C19.7171 13.3594 19.5781 12.9447 19.4824 12.457C19.3867 11.9694 19.3389 11.3997 19.3389 10.748V9.23047C19.3389 8.41471 19.4118 7.73112 19.5576 7.17969C19.708 6.62826 19.9199 6.1862 20.1934 5.85352C20.4668 5.51628 20.7949 5.27474 21.1777 5.12891C21.5651 4.98307 21.998 4.91016 22.4766 4.91016C22.8639 4.91016 23.2194 4.95801 23.543 5.05371C23.8711 5.14486 24.1628 5.29297 24.418 5.49805C24.6732 5.69857 24.8896 5.96745 25.0674 6.30469C25.2497 6.63737 25.3887 7.04525 25.4844 7.52832C25.5801 8.01139 25.6279 8.57878 25.6279 9.23047ZM24.3564 10.9531V9.01855C24.3564 8.57194 24.3291 8.18001 24.2744 7.84277C24.2243 7.50098 24.1491 7.20931 24.0488 6.96777C23.9486 6.72624 23.821 6.53027 23.666 6.37988C23.5156 6.22949 23.3402 6.12012 23.1396 6.05176C22.9437 5.97884 22.7227 5.94238 22.4766 5.94238C22.1758 5.94238 21.9092 5.99935 21.6768 6.11328C21.4443 6.22266 21.2484 6.39811 21.0889 6.63965C20.9339 6.88118 20.8154 7.19792 20.7334 7.58984C20.6514 7.98177 20.6104 8.45801 20.6104 9.01855V10.9531C20.6104 11.3997 20.6354 11.7939 20.6855 12.1357C20.7402 12.4775 20.82 12.7738 20.9248 13.0244C21.0296 13.2705 21.1572 13.4733 21.3076 13.6328C21.458 13.7923 21.6312 13.9108 21.8271 13.9883C22.0277 14.0612 22.2487 14.0977 22.4902 14.0977C22.8001 14.0977 23.0713 14.0384 23.3037 13.9199C23.5361 13.8014 23.7298 13.6169 23.8848 13.3662C24.0443 13.111 24.1628 12.7852 24.2402 12.3887C24.3177 11.9876 24.3564 11.5091 24.3564 10.9531ZM33.5029 9.23047V10.748C33.5029 11.5638 33.43 12.252 33.2842 12.8125C33.1383 13.373 32.9287 13.8242 32.6553 14.166C32.3818 14.5078 32.0514 14.7562 31.6641 14.9111C31.2812 15.0615 30.8483 15.1367 30.3652 15.1367C29.9824 15.1367 29.6292 15.0889 29.3057 14.9932C28.9821 14.8975 28.6904 14.7448 28.4307 14.5352C28.1755 14.321 27.9567 14.043 27.7744 13.7012C27.5921 13.3594 27.4531 12.9447 27.3574 12.457C27.2617 11.9694 27.2139 11.3997 27.2139 10.748V9.23047C27.2139 8.41471 27.2868 7.73112 27.4326 7.17969C27.583 6.62826 27.7949 6.1862 28.0684 5.85352C28.3418 5.51628 28.6699 5.27474 29.0527 5.12891C29.4401 4.98307 29.873 4.91016 30.3516 4.91016C30.7389 4.91016 31.0944 4.95801 31.418 5.05371C31.7461 5.14486 32.0378 5.29297 32.293 5.49805C32.5482 5.69857 32.7646 5.96745 32.9424 6.30469C33.1247 6.63737 33.2637 7.04525 33.3594 7.52832C33.4551 8.01139 33.5029 8.57878 33.5029 9.23047ZM32.2314 10.9531V9.01855C32.2314 8.57194 32.2041 8.18001 32.1494 7.84277C32.0993 7.50098 32.0241 7.20931 31.9238 6.96777C31.8236 6.72624 31.696 6.53027 31.541 6.37988C31.3906 6.22949 31.2152 6.12012 31.0146 6.05176C30.8187 5.97884 30.5977 5.94238 30.3516 5.94238C30.0508 5.94238 29.7842 5.99935 29.5518 6.11328C29.3193 6.22266 29.1234 6.39811 28.9639 6.63965C28.8089 6.88118 28.6904 7.19792 28.6084 7.58984C28.5264 7.98177 28.4854 8.45801 28.4854 9.01855V10.9531C28.4854 11.3997 28.5104 11.7939 28.5605 12.1357C28.6152 12.4775 28.695 12.7738 28.7998 13.0244C28.9046 13.2705 29.0322 13.4733 29.1826 13.6328C29.333 13.7923 29.5062 13.9108 29.7021 13.9883C29.9027 14.0612 30.1237 14.0977 30.3652 14.0977C30.6751 14.0977 30.9463 14.0384 31.1787 13.9199C31.4111 13.8014 31.6048 13.6169 31.7598 13.3662C31.9193 13.111 32.0378 12.7852 32.1152 12.3887C32.1927 11.9876 32.2314 11.5091 32.2314 10.9531ZM36.5449 4.5V5.375C36.5449 5.64844 36.4971 5.93783 36.4014 6.24316C36.3102 6.54395 36.1758 6.83561 35.998 7.11816C35.8203 7.39616 35.6061 7.63997 35.3555 7.84961L34.6309 7.35059C34.8451 7.0498 35.0068 6.74219 35.1162 6.42773C35.2301 6.10872 35.2871 5.76465 35.2871 5.39551V4.5H36.5449ZM44.1807 9.23047V10.748C44.1807 11.5638 44.1077 12.252 43.9619 12.8125C43.8161 13.373 43.6064 13.8242 43.333 14.166C43.0596 14.5078 42.7292 14.7562 42.3418 14.9111C41.959 15.0615 41.526 15.1367 41.043 15.1367C40.6602 15.1367 40.307 15.0889 39.9834 14.9932C39.6598 14.8975 39.3682 14.7448 39.1084 14.5352C38.8532 14.321 38.6344 14.043 38.4521 13.7012C38.2699 13.3594 38.1309 12.9447 38.0352 12.457C37.9395 11.9694 37.8916 11.3997 37.8916 10.748V9.23047C37.8916 8.41471 37.9645 7.73112 38.1104 7.17969C38.2607 6.62826 38.4727 6.1862 38.7461 5.85352C39.0195 5.51628 39.3477 5.27474 39.7305 5.12891C40.1178 4.98307 40.5508 4.91016 41.0293 4.91016C41.4167 4.91016 41.7721 4.95801 42.0957 5.05371C42.4238 5.14486 42.7155 5.29297 42.9707 5.49805C43.2259 5.69857 43.4424 5.96745 43.6201 6.30469C43.8024 6.63737 43.9414 7.04525 44.0371 7.52832C44.1328 8.01139 44.1807 8.57878 44.1807 9.23047ZM42.9092 10.9531V9.01855C42.9092 8.57194 42.8818 8.18001 42.8271 7.84277C42.777 7.50098 42.7018 7.20931 42.6016 6.96777C42.5013 6.72624 42.3737 6.53027 42.2188 6.37988C42.0684 6.22949 41.8929 6.12012 41.6924 6.05176C41.4964 5.97884 41.2754 5.94238 41.0293 5.94238C40.7285 5.94238 40.4619 5.99935 40.2295 6.11328C39.9971 6.22266 39.8011 6.39811 39.6416 6.63965C39.4867 6.88118 39.3682 7.19792 39.2861 7.58984C39.2041 7.98177 39.1631 8.45801 39.1631 9.01855V10.9531C39.1631 11.3997 39.1882 11.7939 39.2383 12.1357C39.293 12.4775 39.3727 12.7738 39.4775 13.0244C39.5824 13.2705 39.71 13.4733 39.8604 13.6328C40.0107 13.7923 40.1839 13.9108 40.3799 13.9883C40.5804 14.0612 40.8014 14.0977 41.043 14.0977C41.3529 14.0977 41.624 14.0384 41.8564 13.9199C42.0889 13.8014 42.2826 13.6169 42.4375 13.3662C42.597 13.111 42.7155 12.7852 42.793 12.3887C42.8704 11.9876 42.9092 11.5091 42.9092 10.9531ZM52.0557 9.23047V10.748C52.0557 11.5638 51.9827 12.252 51.8369 12.8125C51.6911 13.373 51.4814 13.8242 51.208 14.166C50.9346 14.5078 50.6042 14.7562 50.2168 14.9111C49.834 15.0615 49.401 15.1367 48.918 15.1367C48.5352 15.1367 48.182 15.0889 47.8584 14.9932C47.5348 14.8975 47.2432 14.7448 46.9834 14.5352C46.7282 14.321 46.5094 14.043 46.3271 13.7012C46.1449 13.3594 46.0059 12.9447 45.9102 12.457C45.8145 11.9694 45.7666 11.3997 45.7666 10.748V9.23047C45.7666 8.41471 45.8395 7.73112 45.9854 7.17969C46.1357 6.62826 46.3477 6.1862 46.6211 5.85352C46.8945 5.51628 47.2227 5.27474 47.6055 5.12891C47.9928 4.98307 48.4258 4.91016 48.9043 4.91016C49.2917 4.91016 49.6471 4.95801 49.9707 5.05371C50.2988 5.14486 50.5905 5.29297 50.8457 5.49805C51.1009 5.69857 51.3174 5.96745 51.4951 6.30469C51.6774 6.63737 51.8164 7.04525 51.9121 7.52832C52.0078 8.01139 52.0557 8.57878 52.0557 9.23047ZM50.7842 10.9531V9.01855C50.7842 8.57194 50.7568 8.18001 50.7021 7.84277C50.652 7.50098 50.5768 7.20931 50.4766 6.96777C50.3763 6.72624 50.2487 6.53027 50.0938 6.37988C49.9434 6.22949 49.7679 6.12012 49.5674 6.05176C49.3714 5.97884 49.1504 5.94238 48.9043 5.94238C48.6035 5.94238 48.3369 5.99935 48.1045 6.11328C47.8721 6.22266 47.6761 6.39811 47.5166 6.63965C47.3617 6.88118 47.2432 7.19792 47.1611 7.58984C47.0791 7.98177 47.0381 8.45801 47.0381 9.01855V10.9531C47.0381 11.3997 47.0632 11.7939 47.1133 12.1357C47.168 12.4775 47.2477 12.7738 47.3525 13.0244C47.4574 13.2705 47.585 13.4733 47.7354 13.6328C47.8857 13.7923 48.0589 13.9108 48.2549 13.9883C48.4554 14.0612 48.6764 14.0977 48.918 14.0977C49.2279 14.0977 49.499 14.0384 49.7314 13.9199C49.9639 13.8014 50.1576 13.6169 50.3125 13.3662C50.472 13.111 50.5905 12.7852 50.668 12.3887C50.7454 11.9876 50.7842 11.5091 50.7842 10.9531ZM59.9307 9.23047V10.748C59.9307 11.5638 59.8577 12.252 59.7119 12.8125C59.5661 13.373 59.3564 13.8242 59.083 14.166C58.8096 14.5078 58.4792 14.7562 58.0918 14.9111C57.709 15.0615 57.276 15.1367 56.793 15.1367C56.4102 15.1367 56.057 15.0889 55.7334 14.9932C55.4098 14.8975 55.1182 14.7448 54.8584 14.5352C54.6032 14.321 54.3844 14.043 54.2021 13.7012C54.0199 13.3594 53.8809 12.9447 53.7852 12.457C53.6895 11.9694 53.6416 11.3997 53.6416 10.748V9.23047C53.6416 8.41471 53.7145 7.73112 53.8604 7.17969C54.0107 6.62826 54.2227 6.1862 54.4961 5.85352C54.7695 5.51628 55.0977 5.27474 55.4805 5.12891C55.8678 4.98307 56.3008 4.91016 56.7793 4.91016C57.1667 4.91016 57.5221 4.95801 57.8457 5.05371C58.1738 5.14486 58.4655 5.29297 58.7207 5.49805C58.9759 5.69857 59.1924 5.96745 59.3701 6.30469C59.5524 6.63737 59.6914 7.04525 59.7871 7.52832C59.8828 8.01139 59.9307 8.57878 59.9307 9.23047ZM58.6592 10.9531V9.01855C58.6592 8.57194 58.6318 8.18001 58.5771 7.84277C58.527 7.50098 58.4518 7.20931 58.3516 6.96777C58.2513 6.72624 58.1237 6.53027 57.9688 6.37988C57.8184 6.22949 57.6429 6.12012 57.4424 6.05176C57.2464 5.97884 57.0254 5.94238 56.7793 5.94238C56.4785 5.94238 56.2119 5.99935 55.9795 6.11328C55.7471 6.22266 55.5511 6.39811 55.3916 6.63965C55.2367 6.88118 55.1182 7.19792 55.0361 7.58984C54.9541 7.98177 54.9131 8.45801 54.9131 9.01855V10.9531C54.9131 11.3997 54.9382 11.7939 54.9883 12.1357C55.043 12.4775 55.1227 12.7738 55.2275 13.0244C55.3324 13.2705 55.46 13.4733 55.6104 13.6328C55.7607 13.7923 55.9339 13.9108 56.1299 13.9883C56.3304 14.0612 56.5514 14.0977 56.793 14.0977C57.1029 14.0977 57.374 14.0384 57.6064 13.9199C57.8389 13.8014 58.0326 13.6169 58.1875 13.3662C58.347 13.111 58.4655 12.7852 58.543 12.3887C58.6204 11.9876 58.6592 11.5091 58.6592 10.9531Z" fill="#71717A"/>
<path d="M7.34863 51.9609V53H0.833984V52.0908L4.09473 48.4609C4.49577 48.0143 4.80566 47.6361 5.02441 47.3262C5.24772 47.0117 5.40267 46.7314 5.48926 46.4854C5.5804 46.2347 5.62598 45.9795 5.62598 45.7197C5.62598 45.3916 5.55762 45.0954 5.4209 44.8311C5.28874 44.5622 5.09277 44.348 4.83301 44.1885C4.57324 44.029 4.25879 43.9492 3.88965 43.9492C3.44759 43.9492 3.07845 44.0358 2.78223 44.209C2.49056 44.3776 2.27181 44.6146 2.12598 44.9199C1.98014 45.2253 1.90723 45.5762 1.90723 45.9727H0.642578C0.642578 45.4121 0.765625 44.8994 1.01172 44.4346C1.25781 43.9697 1.6224 43.6006 2.10547 43.3271C2.58854 43.0492 3.18327 42.9102 3.88965 42.9102C4.51855 42.9102 5.05632 43.0218 5.50293 43.2451C5.94954 43.4639 6.29134 43.7738 6.52832 44.1748C6.76986 44.5713 6.89062 45.0361 6.89062 45.5693C6.89062 45.861 6.84049 46.1572 6.74023 46.458C6.64453 46.7542 6.51009 47.0505 6.33691 47.3467C6.16829 47.6429 5.97005 47.9346 5.74219 48.2217C5.51888 48.5088 5.27962 48.7913 5.02441 49.0693L2.3584 51.9609H7.34863ZM10.1172 42.5V43.375C10.1172 43.6484 10.0693 43.9378 9.97363 44.2432C9.88249 44.5439 9.74805 44.8356 9.57031 45.1182C9.39258 45.3962 9.17839 45.64 8.92773 45.8496L8.20312 45.3506C8.41732 45.0498 8.5791 44.7422 8.68848 44.4277C8.80241 44.1087 8.85938 43.7646 8.85938 43.3955V42.5H10.1172ZM17.7529 47.2305V48.748C17.7529 49.5638 17.68 50.252 17.5342 50.8125C17.3883 51.373 17.1787 51.8242 16.9053 52.166C16.6318 52.5078 16.3014 52.7562 15.9141 52.9111C15.5312 53.0615 15.0983 53.1367 14.6152 53.1367C14.2324 53.1367 13.8792 53.0889 13.5557 52.9932C13.2321 52.8975 12.9404 52.7448 12.6807 52.5352C12.4255 52.321 12.2067 52.043 12.0244 51.7012C11.8421 51.3594 11.7031 50.9447 11.6074 50.457C11.5117 49.9694 11.4639 49.3997 11.4639 48.748V47.2305C11.4639 46.4147 11.5368 45.7311 11.6826 45.1797C11.833 44.6283 12.0449 44.1862 12.3184 43.8535C12.5918 43.5163 12.9199 43.2747 13.3027 43.1289C13.6901 42.9831 14.123 42.9102 14.6016 42.9102C14.9889 42.9102 15.3444 42.958 15.668 43.0537C15.9961 43.1449 16.2878 43.293 16.543 43.498C16.7982 43.6986 17.0146 43.9674 17.1924 44.3047C17.3747 44.6374 17.5137 45.0452 17.6094 45.5283C17.7051 46.0114 17.7529 46.5788 17.7529 47.2305ZM16.4814 48.9531V47.0186C16.4814 46.5719 16.4541 46.18 16.3994 45.8428C16.3493 45.501 16.2741 45.2093 16.1738 44.9678C16.0736 44.7262 15.946 44.5303 15.791 44.3799C15.6406 44.2295 15.4652 44.1201 15.2646 44.0518C15.0687 43.9788 14.8477 43.9424 14.6016 43.9424C14.3008 43.9424 14.0342 43.9993 13.8018 44.1133C13.5693 44.2227 13.3734 44.3981 13.2139 44.6396C13.0589 44.8812 12.9404 45.1979 12.8584 45.5898C12.7764 45.9818 12.7354 46.458 12.7354 47.0186V48.9531C12.7354 49.3997 12.7604 49.7939 12.8105 50.1357C12.8652 50.4775 12.945 50.7738 13.0498 51.0244C13.1546 51.2705 13.2822 51.4733 13.4326 51.6328C13.583 51.7923 13.7562 51.9108 13.9521 51.9883C14.1527 52.0612 14.3737 52.0977 14.6152 52.0977C14.9251 52.0977 15.1963 52.0384 15.4287 51.9199C15.6611 51.8014 15.8548 51.6169 16.0098 51.3662C16.1693 51.111 16.2878 50.7852 16.3652 50.3887C16.4427 49.9876 16.4814 49.5091 16.4814 48.9531ZM25.6279 47.2305V48.748C25.6279 49.5638 25.555 50.252 25.4092 50.8125C25.2633 51.373 25.0537 51.8242 24.7803 52.166C24.5068 52.5078 24.1764 52.7562 23.7891 52.9111C23.4062 53.0615 22.9733 53.1367 22.4902 53.1367C22.1074 53.1367 21.7542 53.0889 21.4307 52.9932C21.1071 52.8975 20.8154 52.7448 20.5557 52.5352C20.3005 52.321 20.0817 52.043 19.8994 51.7012C19.7171 51.3594 19.5781 50.9447 19.4824 50.457C19.3867 49.9694 19.3389 49.3997 19.3389 48.748V47.2305C19.3389 46.4147 19.4118 45.7311 19.5576 45.1797C19.708 44.6283 19.9199 44.1862 20.1934 43.8535C20.4668 43.5163 20.7949 43.2747 21.1777 43.1289C21.5651 42.9831 21.998 42.9102 22.4766 42.9102C22.8639 42.9102 23.2194 42.958 23.543 43.0537C23.8711 43.1449 24.1628 43.293 24.418 43.498C24.6732 43.6986 24.8896 43.9674 25.0674 44.3047C25.2497 44.6374 25.3887 45.0452 25.4844 45.5283C25.5801 46.0114 25.6279 46.5788 25.6279 47.2305ZM24.3564 48.9531V47.0186C24.3564 46.5719 24.3291 46.18 24.2744 45.8428C24.2243 45.501 24.1491 45.2093 24.0488 44.9678C23.9486 44.7262 23.821 44.5303 23.666 44.3799C23.5156 44.2295 23.3402 44.1201 23.1396 44.0518C22.9437 43.9788 22.7227 43.9424 22.4766 43.9424C22.1758 43.9424 21.9092 43.9993 21.6768 44.1133C21.4443 44.2227 21.2484 44.3981 21.0889 44.6396C20.9339 44.8812 20.8154 45.1979 20.7334 45.5898C20.6514 45.9818 20.6104 46.458 20.6104 47.0186V48.9531C20.6104 49.3997 20.6354 49.7939 20.6855 50.1357C20.7402 50.4775 20.82 50.7738 20.9248 51.0244C21.0296 51.2705 21.1572 51.4733 21.3076 51.6328C21.458 51.7923 21.6312 51.9108 21.8271 51.9883C22.0277 52.0612 22.2487 52.0977 22.4902 52.0977C22.8001 52.0977 23.0713 52.0384 23.3037 51.9199C23.5361 51.8014 23.7298 51.6169 23.8848 51.3662C24.0443 51.111 24.1628 50.7852 24.2402 50.3887C24.3177 49.9876 24.3564 49.5091 24.3564 48.9531ZM33.5029 47.2305V48.748C33.5029 49.5638 33.43 50.252 33.2842 50.8125C33.1383 51.373 32.9287 51.8242 32.6553 52.166C32.3818 52.5078 32.0514 52.7562 31.6641 52.9111C31.2812 53.0615 30.8483 53.1367 30.3652 53.1367C29.9824 53.1367 29.6292 53.0889 29.3057 52.9932C28.9821 52.8975 28.6904 52.7448 28.4307 52.5352C28.1755 52.321 27.9567 52.043 27.7744 51.7012C27.5921 51.3594 27.4531 50.9447 27.3574 50.457C27.2617 49.9694 27.2139 49.3997 27.2139 48.748V47.2305C27.2139 46.4147 27.2868 45.7311 27.4326 45.1797C27.583 44.6283 27.7949 44.1862 28.0684 43.8535C28.3418 43.5163 28.6699 43.2747 29.0527 43.1289C29.4401 42.9831 29.873 42.9102 30.3516 42.9102C30.7389 42.9102 31.0944 42.958 31.418 43.0537C31.7461 43.1449 32.0378 43.293 32.293 43.498C32.5482 43.6986 32.7646 43.9674 32.9424 44.3047C33.1247 44.6374 33.2637 45.0452 33.3594 45.5283C33.4551 46.0114 33.5029 46.5788 33.5029 47.2305ZM32.2314 48.9531V47.0186C32.2314 46.5719 32.2041 46.18 32.1494 45.8428C32.0993 45.501 32.0241 45.2093 31.9238 44.9678C31.8236 44.7262 31.696 44.5303 31.541 44.3799C31.3906 44.2295 31.2152 44.1201 31.0146 44.0518C30.8187 43.9788 30.5977 43.9424 30.3516 43.9424C30.0508 43.9424 29.7842 43.9993 29.5518 44.1133C29.3193 44.2227 29.1234 44.3981 28.9639 44.6396C28.8089 44.8812 28.6904 45.1979 28.6084 45.5898C28.5264 45.9818 28.4854 46.458 28.4854 47.0186V48.9531C28.4854 49.3997 28.5104 49.7939 28.5605 50.1357C28.6152 50.4775 28.695 50.7738 28.7998 51.0244C28.9046 51.2705 29.0322 51.4733 29.1826 51.6328C29.333 51.7923 29.5062 51.9108 29.7021 51.9883C29.9027 52.0612 30.1237 52.0977 30.3652 52.0977C30.6751 52.0977 30.9463 52.0384 31.1787 51.9199C31.4111 51.8014 31.6048 51.6169 31.7598 51.3662C31.9193 51.111 32.0378 50.7852 32.1152 50.3887C32.1927 49.9876 32.2314 49.5091 32.2314 48.9531ZM36.5449 42.5V43.375C36.5449 43.6484 36.4971 43.9378 36.4014 44.2432C36.3102 44.5439 36.1758 44.8356 35.998 45.1182C35.8203 45.3962 35.6061 45.64 35.3555 45.8496L34.6309 45.3506C34.8451 45.0498 35.0068 44.7422 35.1162 44.4277C35.2301 44.1087 35.2871 43.7646 35.2871 43.3955V42.5H36.5449ZM44.1807 47.2305V48.748C44.1807 49.5638 44.1077 50.252 43.9619 50.8125C43.8161 51.373 43.6064 51.8242 43.333 52.166C43.0596 52.5078 42.7292 52.7562 42.3418 52.9111C41.959 53.0615 41.526 53.1367 41.043 53.1367C40.6602 53.1367 40.307 53.0889 39.9834 52.9932C39.6598 52.8975 39.3682 52.7448 39.1084 52.5352C38.8532 52.321 38.6344 52.043 38.4521 51.7012C38.2699 51.3594 38.1309 50.9447 38.0352 50.457C37.9395 49.9694 37.8916 49.3997 37.8916 48.748V47.2305C37.8916 46.4147 37.9645 45.7311 38.1104 45.1797C38.2607 44.6283 38.4727 44.1862 38.7461 43.8535C39.0195 43.5163 39.3477 43.2747 39.7305 43.1289C40.1178 42.9831 40.5508 42.9102 41.0293 42.9102C41.4167 42.9102 41.7721 42.958 42.0957 43.0537C42.4238 43.1449 42.7155 43.293 42.9707 43.498C43.2259 43.6986 43.4424 43.9674 43.6201 44.3047C43.8024 44.6374 43.9414 45.0452 44.0371 45.5283C44.1328 46.0114 44.1807 46.5788 44.1807 47.2305ZM42.9092 48.9531V47.0186C42.9092 46.5719 42.8818 46.18 42.8271 45.8428C42.777 45.501 42.7018 45.2093 42.6016 44.9678C42.5013 44.7262 42.3737 44.5303 42.2188 44.3799C42.0684 44.2295 41.8929 44.1201 41.6924 44.0518C41.4964 43.9788 41.2754 43.9424 41.0293 43.9424C40.7285 43.9424 40.4619 43.9993 40.2295 44.1133C39.9971 44.2227 39.8011 44.3981 39.6416 44.6396C39.4867 44.8812 39.3682 45.1979 39.2861 45.5898C39.2041 45.9818 39.1631 46.458 39.1631 47.0186V48.9531C39.1631 49.3997 39.1882 49.7939 39.2383 50.1357C39.293 50.4775 39.3727 50.7738 39.4775 51.0244C39.5824 51.2705 39.71 51.4733 39.8604 51.6328C40.0107 51.7923 40.1839 51.9108 40.3799 51.9883C40.5804 52.0612 40.8014 52.0977 41.043 52.0977C41.3529 52.0977 41.624 52.0384 41.8564 51.9199C42.0889 51.8014 42.2826 51.6169 42.4375 51.3662C42.597 51.111 42.7155 50.7852 42.793 50.3887C42.8704 49.9876 42.9092 49.5091 42.9092 48.9531ZM52.0557 47.2305V48.748C52.0557 49.5638 51.9827 50.252 51.8369 50.8125C51.6911 51.373 51.4814 51.8242 51.208 52.166C50.9346 52.5078 50.6042 52.7562 50.2168 52.9111C49.834 53.0615 49.401 53.1367 48.918 53.1367C48.5352 53.1367 48.182 53.0889 47.8584 52.9932C47.5348 52.8975 47.2432 52.7448 46.9834 52.5352C46.7282 52.321 46.5094 52.043 46.3271 51.7012C46.1449 51.3594 46.0059 50.9447 45.9102 50.457C45.8145 49.9694 45.7666 49.3997 45.7666 48.748V47.2305C45.7666 46.4147 45.8395 45.7311 45.9854 45.1797C46.1357 44.6283 46.3477 44.1862 46.6211 43.8535C46.8945 43.5163 47.2227 43.2747 47.6055 43.1289C47.9928 42.9831 48.4258 42.9102 48.9043 42.9102C49.2917 42.9102 49.6471 42.958 49.9707 43.0537C50.2988 43.1449 50.5905 43.293 50.8457 43.498C51.1009 43.6986 51.3174 43.9674 51.4951 44.3047C51.6774 44.6374 51.8164 45.0452 51.9121 45.5283C52.0078 46.0114 52.0557 46.5788 52.0557 47.2305ZM50.7842 48.9531V47.0186C50.7842 46.5719 50.7568 46.18 50.7021 45.8428C50.652 45.501 50.5768 45.2093 50.4766 44.9678C50.3763 44.7262 50.2487 44.5303 50.0938 44.3799C49.9434 44.2295 49.7679 44.1201 49.5674 44.0518C49.3714 43.9788 49.1504 43.9424 48.9043 43.9424C48.6035 43.9424 48.3369 43.9993 48.1045 44.1133C47.8721 44.2227 47.6761 44.3981 47.5166 44.6396C47.3617 44.8812 47.2432 45.1979 47.1611 45.5898C47.0791 45.9818 47.0381 46.458 47.0381 47.0186V48.9531C47.0381 49.3997 47.0632 49.7939 47.1133 50.1357C47.168 50.4775 47.2477 50.7738 47.3525 51.0244C47.4574 51.2705 47.585 51.4733 47.7354 51.6328C47.8857 51.7923 48.0589 51.9108 48.2549 51.9883C48.4554 52.0612 48.6764 52.0977 48.918 52.0977C49.2279 52.0977 49.499 52.0384 49.7314 51.9199C49.9639 51.8014 50.1576 51.6169 50.3125 51.3662C50.472 51.111 50.5905 50.7852 50.668 50.3887C50.7454 49.9876 50.7842 49.5091 50.7842 48.9531ZM59.9307 47.2305V48.748C59.9307 49.5638 59.8577 50.252 59.7119 50.8125C59.5661 51.373 59.3564 51.8242 59.083 52.166C58.8096 52.5078 58.4792 52.7562 58.0918 52.9111C57.709 53.0615 57.276 53.1367 56.793 53.1367C56.4102 53.1367 56.057 53.0889 55.7334 52.9932C55.4098 52.8975 55.1182 52.7448 54.8584 52.5352C54.6032 52.321 54.3844 52.043 54.2021 51.7012C54.0199 51.3594 53.8809 50.9447 53.7852 50.457C53.6895 49.9694 53.6416 49.3997 53.6416 48.748V47.2305C53.6416 46.4147 53.7145 45.7311 53.8604 45.1797C54.0107 44.6283 54.2227 44.1862 54.4961 43.8535C54.7695 43.5163 55.0977 43.2747 55.4805 43.1289C55.8678 42.9831 56.3008 42.9102 56.7793 42.9102C57.1667 42.9102 57.5221 42.958 57.8457 43.0537C58.1738 43.1449 58.4655 43.293 58.7207 43.498C58.9759 43.6986 59.1924 43.9674 59.3701 44.3047C59.5524 44.6374 59.6914 45.0452 59.7871 45.5283C59.8828 46.0114 59.9307 46.5788 59.9307 47.2305ZM58.6592 48.9531V47.0186C58.6592 46.5719 58.6318 46.18 58.5771 45.8428C58.527 45.501 58.4518 45.2093 58.3516 44.9678C58.2513 44.7262 58.1237 44.5303 57.9688 44.3799C57.8184 44.2295 57.6429 44.1201 57.4424 44.0518C57.2464 43.9788 57.0254 43.9424 56.7793 43.9424C56.4785 43.9424 56.2119 43.9993 55.9795 44.1133C55.7471 44.2227 55.5511 44.3981 55.3916 44.6396C55.2367 44.8812 55.1182 45.1979 55.0361 45.5898C54.9541 45.9818 54.9131 46.458 54.9131 47.0186V48.9531C54.9131 49.3997 54.9382 49.7939 54.9883 50.1357C55.043 50.4775 55.1227 50.7738 55.2275 51.0244C55.3324 51.2705 55.46 51.4733 55.6104 51.6328C55.7607 51.7923 55.9339 51.9108 56.1299 51.9883C56.3304 52.0612 56.5514 52.0977 56.793 52.0977C57.1029 52.0977 57.374 52.0384 57.6064 51.9199C57.8389 51.8014 58.0326 51.6169 58.1875 51.3662C58.347 51.111 58.4655 50.7852 58.543 50.3887C58.6204 49.9876 58.6592 49.5091 58.6592 48.9531Z" fill="#71717A"/>
<path d="M4.9834 80.9922V91H3.71875V82.5713L1.16895 83.501V82.3594L4.78516 80.9922H4.9834ZM10.1172 80.5V81.375C10.1172 81.6484 10.0693 81.9378 9.97363 82.2432C9.88249 82.5439 9.74805 82.8356 9.57031 83.1182C9.39258 83.3962 9.17839 83.64 8.92773 83.8496L8.20312 83.3506C8.41732 83.0498 8.5791 82.7422 8.68848 82.4277C8.80241 82.1087 8.85938 81.7646 8.85938 81.3955V80.5H10.1172ZM17.7529 85.2305V86.748C17.7529 87.5638 17.68 88.252 17.5342 88.8125C17.3883 89.373 17.1787 89.8242 16.9053 90.166C16.6318 90.5078 16.3014 90.7562 15.9141 90.9111C15.5312 91.0615 15.0983 91.1367 14.6152 91.1367C14.2324 91.1367 13.8792 91.0889 13.5557 90.9932C13.2321 90.8975 12.9404 90.7448 12.6807 90.5352C12.4255 90.321 12.2067 90.043 12.0244 89.7012C11.8421 89.3594 11.7031 88.9447 11.6074 88.457C11.5117 87.9694 11.4639 87.3997 11.4639 86.748V85.2305C11.4639 84.4147 11.5368 83.7311 11.6826 83.1797C11.833 82.6283 12.0449 82.1862 12.3184 81.8535C12.5918 81.5163 12.9199 81.2747 13.3027 81.1289C13.6901 80.9831 14.123 80.9102 14.6016 80.9102C14.9889 80.9102 15.3444 80.958 15.668 81.0537C15.9961 81.1449 16.2878 81.293 16.543 81.498C16.7982 81.6986 17.0146 81.9674 17.1924 82.3047C17.3747 82.6374 17.5137 83.0452 17.6094 83.5283C17.7051 84.0114 17.7529 84.5788 17.7529 85.2305ZM16.4814 86.9531V85.0186C16.4814 84.5719 16.4541 84.18 16.3994 83.8428C16.3493 83.501 16.2741 83.2093 16.1738 82.9678C16.0736 82.7262 15.946 82.5303 15.791 82.3799C15.6406 82.2295 15.4652 82.1201 15.2646 82.0518C15.0687 81.9788 14.8477 81.9424 14.6016 81.9424C14.3008 81.9424 14.0342 81.9993 13.8018 82.1133C13.5693 82.2227 13.3734 82.3981 13.2139 82.6396C13.0589 82.8812 12.9404 83.1979 12.8584 83.5898C12.7764 83.9818 12.7354 84.458 12.7354 85.0186V86.9531C12.7354 87.3997 12.7604 87.7939 12.8105 88.1357C12.8652 88.4775 12.945 88.7738 13.0498 89.0244C13.1546 89.2705 13.2822 89.4733 13.4326 89.6328C13.583 89.7923 13.7562 89.9108 13.9521 89.9883C14.1527 90.0612 14.3737 90.0977 14.6152 90.0977C14.9251 90.0977 15.1963 90.0384 15.4287 89.9199C15.6611 89.8014 15.8548 89.6169 16.0098 89.3662C16.1693 89.111 16.2878 88.7852 16.3652 88.3887C16.4427 87.9876 16.4814 87.5091 16.4814 86.9531ZM25.6279 85.2305V86.748C25.6279 87.5638 25.555 88.252 25.4092 88.8125C25.2633 89.373 25.0537 89.8242 24.7803 90.166C24.5068 90.5078 24.1764 90.7562 23.7891 90.9111C23.4062 91.0615 22.9733 91.1367 22.4902 91.1367C22.1074 91.1367 21.7542 91.0889 21.4307 90.9932C21.1071 90.8975 20.8154 90.7448 20.5557 90.5352C20.3005 90.321 20.0817 90.043 19.8994 89.7012C19.7171 89.3594 19.5781 88.9447 19.4824 88.457C19.3867 87.9694 19.3389 87.3997 19.3389 86.748V85.2305C19.3389 84.4147 19.4118 83.7311 19.5576 83.1797C19.708 82.6283 19.9199 82.1862 20.1934 81.8535C20.4668 81.5163 20.7949 81.2747 21.1777 81.1289C21.5651 80.9831 21.998 80.9102 22.4766 80.9102C22.8639 80.9102 23.2194 80.958 23.543 81.0537C23.8711 81.1449 24.1628 81.293 24.418 81.498C24.6732 81.6986 24.8896 81.9674 25.0674 82.3047C25.2497 82.6374 25.3887 83.0452 25.4844 83.5283C25.5801 84.0114 25.6279 84.5788 25.6279 85.2305ZM24.3564 86.9531V85.0186C24.3564 84.5719 24.3291 84.18 24.2744 83.8428C24.2243 83.501 24.1491 83.2093 24.0488 82.9678C23.9486 82.7262 23.821 82.5303 23.666 82.3799C23.5156 82.2295 23.3402 82.1201 23.1396 82.0518C22.9437 81.9788 22.7227 81.9424 22.4766 81.9424C22.1758 81.9424 21.9092 81.9993 21.6768 82.1133C21.4443 82.2227 21.2484 82.3981 21.0889 82.6396C20.9339 82.8812 20.8154 83.1979 20.7334 83.5898C20.6514 83.9818 20.6104 84.458 20.6104 85.0186V86.9531C20.6104 87.3997 20.6354 87.7939 20.6855 88.1357C20.7402 88.4775 20.82 88.7738 20.9248 89.0244C21.0296 89.2705 21.1572 89.4733 21.3076 89.6328C21.458 89.7923 21.6312 89.9108 21.8271 89.9883C22.0277 90.0612 22.2487 90.0977 22.4902 90.0977C22.8001 90.0977 23.0713 90.0384 23.3037 89.9199C23.5361 89.8014 23.7298 89.6169 23.8848 89.3662C24.0443 89.111 24.1628 88.7852 24.2402 88.3887C24.3177 87.9876 24.3564 87.5091 24.3564 86.9531ZM33.5029 85.2305V86.748C33.5029 87.5638 33.43 88.252 33.2842 88.8125C33.1383 89.373 32.9287 89.8242 32.6553 90.166C32.3818 90.5078 32.0514 90.7562 31.6641 90.9111C31.2812 91.0615 30.8483 91.1367 30.3652 91.1367C29.9824 91.1367 29.6292 91.0889 29.3057 90.9932C28.9821 90.8975 28.6904 90.7448 28.4307 90.5352C28.1755 90.321 27.9567 90.043 27.7744 89.7012C27.5921 89.3594 27.4531 88.9447 27.3574 88.457C27.2617 87.9694 27.2139 87.3997 27.2139 86.748V85.2305C27.2139 84.4147 27.2868 83.7311 27.4326 83.1797C27.583 82.6283 27.7949 82.1862 28.0684 81.8535C28.3418 81.5163 28.6699 81.2747 29.0527 81.1289C29.4401 80.9831 29.873 80.9102 30.3516 80.9102C30.7389 80.9102 31.0944 80.958 31.418 81.0537C31.7461 81.1449 32.0378 81.293 32.293 81.498C32.5482 81.6986 32.7646 81.9674 32.9424 82.3047C33.1247 82.6374 33.2637 83.0452 33.3594 83.5283C33.4551 84.0114 33.5029 84.5788 33.5029 85.2305ZM32.2314 86.9531V85.0186C32.2314 84.5719 32.2041 84.18 32.1494 83.8428C32.0993 83.501 32.0241 83.2093 31.9238 82.9678C31.8236 82.7262 31.696 82.5303 31.541 82.3799C31.3906 82.2295 31.2152 82.1201 31.0146 82.0518C30.8187 81.9788 30.5977 81.9424 30.3516 81.9424C30.0508 81.9424 29.7842 81.9993 29.5518 82.1133C29.3193 82.2227 29.1234 82.3981 28.9639 82.6396C28.8089 82.8812 28.6904 83.1979 28.6084 83.5898C28.5264 83.9818 28.4854 84.458 28.4854 85.0186V86.9531C28.4854 87.3997 28.5104 87.7939 28.5605 88.1357C28.6152 88.4775 28.695 88.7738 28.7998 89.0244C28.9046 89.2705 29.0322 89.4733 29.1826 89.6328C29.333 89.7923 29.5062 89.9108 29.7021 89.9883C29.9027 90.0612 30.1237 90.0977 30.3652 90.0977C30.6751 90.0977 30.9463 90.0384 31.1787 89.9199C31.4111 89.8014 31.6048 89.6169 31.7598 89.3662C31.9193 89.111 32.0378 88.7852 32.1152 88.3887C32.1927 87.9876 32.2314 87.5091 32.2314 86.9531ZM36.5449 80.5V81.375C36.5449 81.6484 36.4971 81.9378 36.4014 82.2432C36.3102 82.5439 36.1758 82.8356 35.998 83.1182C35.8203 83.3962 35.6061 83.64 35.3555 83.8496L34.6309 83.3506C34.8451 83.0498 35.0068 82.7422 35.1162 82.4277C35.2301 82.1087 35.2871 81.7646 35.2871 81.3955V80.5H36.5449ZM44.1807 85.2305V86.748C44.1807 87.5638 44.1077 88.252 43.9619 88.8125C43.8161 89.373 43.6064 89.8242 43.333 90.166C43.0596 90.5078 42.7292 90.7562 42.3418 90.9111C41.959 91.0615 41.526 91.1367 41.043 91.1367C40.6602 91.1367 40.307 91.0889 39.9834 90.9932C39.6598 90.8975 39.3682 90.7448 39.1084 90.5352C38.8532 90.321 38.6344 90.043 38.4521 89.7012C38.2699 89.3594 38.1309 88.9447 38.0352 88.457C37.9395 87.9694 37.8916 87.3997 37.8916 86.748V85.2305C37.8916 84.4147 37.9645 83.7311 38.1104 83.1797C38.2607 82.6283 38.4727 82.1862 38.7461 81.8535C39.0195 81.5163 39.3477 81.2747 39.7305 81.1289C40.1178 80.9831 40.5508 80.9102 41.0293 80.9102C41.4167 80.9102 41.7721 80.958 42.0957 81.0537C42.4238 81.1449 42.7155 81.293 42.9707 81.498C43.2259 81.6986 43.4424 81.9674 43.6201 82.3047C43.8024 82.6374 43.9414 83.0452 44.0371 83.5283C44.1328 84.0114 44.1807 84.5788 44.1807 85.2305ZM42.9092 86.9531V85.0186C42.9092 84.5719 42.8818 84.18 42.8271 83.8428C42.777 83.501 42.7018 83.2093 42.6016 82.9678C42.5013 82.7262 42.3737 82.5303 42.2188 82.3799C42.0684 82.2295 41.8929 82.1201 41.6924 82.0518C41.4964 81.9788 41.2754 81.9424 41.0293 81.9424C40.7285 81.9424 40.4619 81.9993 40.2295 82.1133C39.9971 82.2227 39.8011 82.3981 39.6416 82.6396C39.4867 82.8812 39.3682 83.1979 39.2861 83.5898C39.2041 83.9818 39.1631 84.458 39.1631 85.0186V86.9531C39.1631 87.3997 39.1882 87.7939 39.2383 88.1357C39.293 88.4775 39.3727 88.7738 39.4775 89.0244C39.5824 89.2705 39.71 89.4733 39.8604 89.6328C40.0107 89.7923 40.1839 89.9108 40.3799 89.9883C40.5804 90.0612 40.8014 90.0977 41.043 90.0977C41.3529 90.0977 41.624 90.0384 41.8564 89.9199C42.0889 89.8014 42.2826 89.6169 42.4375 89.3662C42.597 89.111 42.7155 88.7852 42.793 88.3887C42.8704 87.9876 42.9092 87.5091 42.9092 86.9531ZM52.0557 85.2305V86.748C52.0557 87.5638 51.9827 88.252 51.8369 88.8125C51.6911 89.373 51.4814 89.8242 51.208 90.166C50.9346 90.5078 50.6042 90.7562 50.2168 90.9111C49.834 91.0615 49.401 91.1367 48.918 91.1367C48.5352 91.1367 48.182 91.0889 47.8584 90.9932C47.5348 90.8975 47.2432 90.7448 46.9834 90.5352C46.7282 90.321 46.5094 90.043 46.3271 89.7012C46.1449 89.3594 46.0059 88.9447 45.9102 88.457C45.8145 87.9694 45.7666 87.3997 45.7666 86.748V85.2305C45.7666 84.4147 45.8395 83.7311 45.9854 83.1797C46.1357 82.6283 46.3477 82.1862 46.6211 81.8535C46.8945 81.5163 47.2227 81.2747 47.6055 81.1289C47.9928 80.9831 48.4258 80.9102 48.9043 80.9102C49.2917 80.9102 49.6471 80.958 49.9707 81.0537C50.2988 81.1449 50.5905 81.293 50.8457 81.498C51.1009 81.6986 51.3174 81.9674 51.4951 82.3047C51.6774 82.6374 51.8164 83.0452 51.9121 83.5283C52.0078 84.0114 52.0557 84.5788 52.0557 85.2305ZM50.7842 86.9531V85.0186C50.7842 84.5719 50.7568 84.18 50.7021 83.8428C50.652 83.501 50.5768 83.2093 50.4766 82.9678C50.3763 82.7262 50.2487 82.5303 50.0938 82.3799C49.9434 82.2295 49.7679 82.1201 49.5674 82.0518C49.3714 81.9788 49.1504 81.9424 48.9043 81.9424C48.6035 81.9424 48.3369 81.9993 48.1045 82.1133C47.8721 82.2227 47.6761 82.3981 47.5166 82.6396C47.3617 82.8812 47.2432 83.1979 47.1611 83.5898C47.0791 83.9818 47.0381 84.458 47.0381 85.0186V86.9531C47.0381 87.3997 47.0632 87.7939 47.1133 88.1357C47.168 88.4775 47.2477 88.7738 47.3525 89.0244C47.4574 89.2705 47.585 89.4733 47.7354 89.6328C47.8857 89.7923 48.0589 89.9108 48.2549 89.9883C48.4554 90.0612 48.6764 90.0977 48.918 90.0977C49.2279 90.0977 49.499 90.0384 49.7314 89.9199C49.9639 89.8014 50.1576 89.6169 50.3125 89.3662C50.472 89.111 50.5905 88.7852 50.668 88.3887C50.7454 87.9876 50.7842 87.5091 50.7842 86.9531ZM59.9307 85.2305V86.748C59.9307 87.5638 59.8577 88.252 59.7119 88.8125C59.5661 89.373 59.3564 89.8242 59.083 90.166C58.8096 90.5078 58.4792 90.7562 58.0918 90.9111C57.709 91.0615 57.276 91.1367 56.793 91.1367C56.4102 91.1367 56.057 91.0889 55.7334 90.9932C55.4098 90.8975 55.1182 90.7448 54.8584 90.5352C54.6032 90.321 54.3844 90.043 54.2021 89.7012C54.0199 89.3594 53.8809 88.9447 53.7852 88.457C53.6895 87.9694 53.6416 87.3997 53.6416 86.748V85.2305C53.6416 84.4147 53.7145 83.7311 53.8604 83.1797C54.0107 82.6283 54.2227 82.1862 54.4961 81.8535C54.7695 81.5163 55.0977 81.2747 55.4805 81.1289C55.8678 80.9831 56.3008 80.9102 56.7793 80.9102C57.1667 80.9102 57.5221 80.958 57.8457 81.0537C58.1738 81.1449 58.4655 81.293 58.7207 81.498C58.9759 81.6986 59.1924 81.9674 59.3701 82.3047C59.5524 82.6374 59.6914 83.0452 59.7871 83.5283C59.8828 84.0114 59.9307 84.5788 59.9307 85.2305ZM58.6592 86.9531V85.0186C58.6592 84.5719 58.6318 84.18 58.5771 83.8428C58.527 83.501 58.4518 83.2093 58.3516 82.9678C58.2513 82.7262 58.1237 82.5303 57.9688 82.3799C57.8184 82.2295 57.6429 82.1201 57.4424 82.0518C57.2464 81.9788 57.0254 81.9424 56.7793 81.9424C56.4785 81.9424 56.2119 81.9993 55.9795 82.1133C55.7471 82.2227 55.5511 82.3981 55.3916 82.6396C55.2367 82.8812 55.1182 83.1979 55.0361 83.5898C54.9541 83.9818 54.9131 84.458 54.9131 85.0186V86.9531C54.9131 87.3997 54.9382 87.7939 54.9883 88.1357C55.043 88.4775 55.1227 88.7738 55.2275 89.0244C55.3324 89.2705 55.46 89.4733 55.6104 89.6328C55.7607 89.7923 55.9339 89.9108 56.1299 89.9883C56.3304 90.0612 56.5514 90.0977 56.793 90.0977C57.1029 90.0977 57.374 90.0384 57.6064 89.9199C57.8389 89.8014 58.0326 89.6169 58.1875 89.3662C58.347 89.111 58.4655 88.7852 58.543 88.3887C58.6204 87.9876 58.6592 87.5091 58.6592 86.9531Z" fill="#71717A"/>
<path d="M7.0752 123.23V124.748C7.0752 125.564 7.00228 126.252 6.85645 126.812C6.71061 127.373 6.50098 127.824 6.22754 128.166C5.9541 128.508 5.6237 128.756 5.23633 128.911C4.85352 129.062 4.42057 129.137 3.9375 129.137C3.55469 129.137 3.2015 129.089 2.87793 128.993C2.55436 128.897 2.2627 128.745 2.00293 128.535C1.74772 128.321 1.52897 128.043 1.34668 127.701C1.16439 127.359 1.02539 126.945 0.929688 126.457C0.833984 125.969 0.786133 125.4 0.786133 124.748V123.23C0.786133 122.415 0.859049 121.731 1.00488 121.18C1.15527 120.628 1.36719 120.186 1.64062 119.854C1.91406 119.516 2.24219 119.275 2.625 119.129C3.01237 118.983 3.44531 118.91 3.92383 118.91C4.3112 118.91 4.66667 118.958 4.99023 119.054C5.31836 119.145 5.61003 119.293 5.86523 119.498C6.12044 119.699 6.33691 119.967 6.51465 120.305C6.69694 120.637 6.83594 121.045 6.93164 121.528C7.02734 122.011 7.0752 122.579 7.0752 123.23ZM5.80371 124.953V123.019C5.80371 122.572 5.77637 122.18 5.72168 121.843C5.67155 121.501 5.59635 121.209 5.49609 120.968C5.39583 120.726 5.26823 120.53 5.11328 120.38C4.96289 120.229 4.78743 120.12 4.58691 120.052C4.39095 119.979 4.16992 119.942 3.92383 119.942C3.62305 119.942 3.35645 119.999 3.12402 120.113C2.8916 120.223 2.69564 120.398 2.53613 120.64C2.38118 120.881 2.2627 121.198 2.18066 121.59C2.09863 121.982 2.05762 122.458 2.05762 123.019V124.953C2.05762 125.4 2.08268 125.794 2.13281 126.136C2.1875 126.478 2.26725 126.774 2.37207 127.024C2.47689 127.271 2.60449 127.473 2.75488 127.633C2.90527 127.792 3.07845 127.911 3.27441 127.988C3.47493 128.061 3.69596 128.098 3.9375 128.098C4.2474 128.098 4.51855 128.038 4.75098 127.92C4.9834 127.801 5.17708 127.617 5.33203 127.366C5.49154 127.111 5.61003 126.785 5.6875 126.389C5.76497 125.988 5.80371 125.509 5.80371 124.953Z" fill="#71717A"/>
<path d="M78 8C78 3.58172 81.5817 0 86 0C90.4183 0 94 3.58172 94 8V130H78V8Z" fill="#84CC16"/>
<path d="M94 43C94 38.5817 97.5817 35 102 35C106.418 35 110 38.5817 110 43V130H94V43Z" fill="#F97316"/>
<path d="M89.832 154.095V147.047H91.1445V154.095C91.1445 154.751 91.0101 155.305 90.7412 155.756C90.4723 156.207 90.1009 156.551 89.627 156.788C89.1576 157.021 88.6175 157.137 88.0068 157.137C87.3962 157.137 86.8538 157.032 86.3799 156.822C85.9059 156.613 85.5345 156.294 85.2656 155.865C84.9967 155.437 84.8623 154.897 84.8623 154.245H86.1816C86.1816 154.664 86.2591 155.008 86.4141 155.277C86.569 155.546 86.7832 155.744 87.0566 155.872C87.3346 156 87.6514 156.063 88.0068 156.063C88.3532 156.063 88.6631 155.991 88.9365 155.845C89.2145 155.694 89.4333 155.473 89.5928 155.182C89.7523 154.885 89.832 154.523 89.832 154.095ZM97.7139 155.291V149.604H98.9854V157H97.7754L97.7139 155.291ZM97.9531 153.732L98.4795 153.719C98.4795 154.211 98.4271 154.667 98.3223 155.086C98.222 155.501 98.0579 155.861 97.8301 156.166C97.6022 156.471 97.3037 156.711 96.9346 156.884C96.5654 157.052 96.1165 157.137 95.5879 157.137C95.2279 157.137 94.8975 157.084 94.5967 156.979C94.3005 156.875 94.0452 156.713 93.8311 156.494C93.6169 156.275 93.4505 155.991 93.332 155.64C93.2181 155.289 93.1611 154.867 93.1611 154.375V149.604H94.4258V154.389C94.4258 154.721 94.4622 154.997 94.5352 155.216C94.6126 155.43 94.7152 155.601 94.8428 155.729C94.9749 155.852 95.1208 155.938 95.2803 155.988C95.4443 156.038 95.613 156.063 95.7861 156.063C96.3239 156.063 96.75 155.961 97.0645 155.756C97.3789 155.546 97.6045 155.266 97.7412 154.915C97.8825 154.56 97.9531 154.165 97.9531 153.732ZM102.287 146.5V157H101.016V146.5H102.287Z" fill="#71717A"/>
<path d="M150 8C150 3.58172 153.582 0 158 0C162.418 0 166 3.58172 166 8V130H150V8Z" fill="#84CC16"/>
<path d="M166 43C166 38.5817 169.582 35 174 35C178.418 35 182 38.5817 182 43V130H166V43Z" fill="#F97316"/>
<path d="M161.832 154.095V147.047H163.145V154.095C163.145 154.751 163.01 155.305 162.741 155.756C162.472 156.207 162.101 156.551 161.627 156.788C161.158 157.021 160.618 157.137 160.007 157.137C159.396 157.137 158.854 157.032 158.38 156.822C157.906 156.613 157.535 156.294 157.266 155.865C156.997 155.437 156.862 154.897 156.862 154.245H158.182C158.182 154.664 158.259 155.008 158.414 155.277C158.569 155.546 158.783 155.744 159.057 155.872C159.335 156 159.651 156.063 160.007 156.063C160.353 156.063 160.663 155.991 160.937 155.845C161.215 155.694 161.433 155.473 161.593 155.182C161.752 154.885 161.832 154.523 161.832 154.095ZM169.714 155.291V149.604H170.985V157H169.775L169.714 155.291ZM169.953 153.732L170.479 153.719C170.479 154.211 170.427 154.667 170.322 155.086C170.222 155.501 170.058 155.861 169.83 156.166C169.602 156.471 169.304 156.711 168.935 156.884C168.565 157.052 168.117 157.137 167.588 157.137C167.228 157.137 166.897 157.084 166.597 156.979C166.3 156.875 166.045 156.713 165.831 156.494C165.617 156.275 165.451 155.991 165.332 155.64C165.218 155.289 165.161 154.867 165.161 154.375V149.604H166.426V154.389C166.426 154.721 166.462 154.997 166.535 155.216C166.613 155.43 166.715 155.601 166.843 155.729C166.975 155.852 167.121 155.938 167.28 155.988C167.444 156.038 167.613 156.063 167.786 156.063C168.324 156.063 168.75 155.961 169.064 155.756C169.379 155.546 169.604 155.266 169.741 154.915C169.882 154.56 169.953 154.165 169.953 153.732ZM174.287 146.5V157H173.016V146.5H174.287Z" fill="#71717A"/>
<path d="M222 8C222 3.58172 225.582 0 230 0C234.418 0 238 3.58172 238 8V130H222V8Z" fill="#84CC16"/>
<path d="M238 43C238 38.5817 241.582 35 246 35C250.418 35 254 38.5817 254 43V130H238V43Z" fill="#F97316"/>
<path d="M233.832 154.095V147.047H235.145V154.095C235.145 154.751 235.01 155.305 234.741 155.756C234.472 156.207 234.101 156.551 233.627 156.788C233.158 157.021 232.618 157.137 232.007 157.137C231.396 157.137 230.854 157.032 230.38 156.822C229.906 156.613 229.535 156.294 229.266 155.865C228.997 155.437 228.862 154.897 228.862 154.245H230.182C230.182 154.664 230.259 155.008 230.414 155.277C230.569 155.546 230.783 155.744 231.057 155.872C231.335 156 231.651 156.063 232.007 156.063C232.353 156.063 232.663 155.991 232.937 155.845C233.215 155.694 233.433 155.473 233.593 155.182C233.752 154.885 233.832 154.523 233.832 154.095ZM241.714 155.291V149.604H242.985V157H241.775L241.714 155.291ZM241.953 153.732L242.479 153.719C242.479 154.211 242.427 154.667 242.322 155.086C242.222 155.501 242.058 155.861 241.83 156.166C241.602 156.471 241.304 156.711 240.935 156.884C240.565 157.052 240.117 157.137 239.588 157.137C239.228 157.137 238.897 157.084 238.597 156.979C238.3 156.875 238.045 156.713 237.831 156.494C237.617 156.275 237.451 155.991 237.332 155.64C237.218 155.289 237.161 154.867 237.161 154.375V149.604H238.426V154.389C238.426 154.721 238.462 154.997 238.535 155.216C238.613 155.43 238.715 155.601 238.843 155.729C238.975 155.852 239.121 155.938 239.28 155.988C239.444 156.038 239.613 156.063 239.786 156.063C240.324 156.063 240.75 155.961 241.064 155.756C241.379 155.546 241.604 155.266 241.741 154.915C241.882 154.56 241.953 154.165 241.953 153.732ZM246.287 146.5V157H245.016V146.5H246.287Z" fill="#71717A"/>
<path d="M294 8C294 3.58172 297.582 0 302 0C306.418 0 310 3.58172 310 8V130H294V8Z" fill="#84CC16"/>
<path d="M310 43C310 38.5817 313.582 35 318 35C322.418 35 326 38.5817 326 43V130H310V43Z" fill="#F97316"/>
<path d="M305.832 154.095V147.047H307.145V154.095C307.145 154.751 307.01 155.305 306.741 155.756C306.472 156.207 306.101 156.551 305.627 156.788C305.158 157.021 304.618 157.137 304.007 157.137C303.396 157.137 302.854 157.032 302.38 156.822C301.906 156.613 301.535 156.294 301.266 155.865C300.997 155.437 300.862 154.897 300.862 154.245H302.182C302.182 154.664 302.259 155.008 302.414 155.277C302.569 155.546 302.783 155.744 303.057 155.872C303.335 156 303.651 156.063 304.007 156.063C304.353 156.063 304.663 155.991 304.937 155.845C305.215 155.694 305.433 155.473 305.593 155.182C305.752 154.885 305.832 154.523 305.832 154.095ZM313.714 155.291V149.604H314.985V157H313.775L313.714 155.291ZM313.953 153.732L314.479 153.719C314.479 154.211 314.427 154.667 314.322 155.086C314.222 155.501 314.058 155.861 313.83 156.166C313.602 156.471 313.304 156.711 312.935 156.884C312.565 157.052 312.117 157.137 311.588 157.137C311.228 157.137 310.897 157.084 310.597 156.979C310.3 156.875 310.045 156.713 309.831 156.494C309.617 156.275 309.451 155.991 309.332 155.64C309.218 155.289 309.161 154.867 309.161 154.375V149.604H310.426V154.389C310.426 154.721 310.462 154.997 310.535 155.216C310.613 155.43 310.715 155.601 310.843 155.729C310.975 155.852 311.121 155.938 311.28 155.988C311.444 156.038 311.613 156.063 311.786 156.063C312.324 156.063 312.75 155.961 313.064 155.756C313.379 155.546 313.604 155.266 313.741 154.915C313.882 154.56 313.953 154.165 313.953 153.732ZM318.287 146.5V157H317.016V146.5H318.287Z" fill="#71717A"/>
<path d="M366 8C366 3.58172 369.582 0 374 0C378.418 0 382 3.58172 382 8V130H366V8Z" fill="#84CC16"/>
<path d="M382 43C382 38.5817 385.582 35 390 35C394.418 35 398 38.5817 398 43V130H382V43Z" fill="#F97316"/>
<path d="M377.832 154.095V147.047H379.145V154.095C379.145 154.751 379.01 155.305 378.741 155.756C378.472 156.207 378.101 156.551 377.627 156.788C377.158 157.021 376.618 157.137 376.007 157.137C375.396 157.137 374.854 157.032 374.38 156.822C373.906 156.613 373.535 156.294 373.266 155.865C372.997 155.437 372.862 154.897 372.862 154.245H374.182C374.182 154.664 374.259 155.008 374.414 155.277C374.569 155.546 374.783 155.744 375.057 155.872C375.335 156 375.651 156.063 376.007 156.063C376.353 156.063 376.663 155.991 376.937 155.845C377.215 155.694 377.433 155.473 377.593 155.182C377.752 154.885 377.832 154.523 377.832 154.095ZM385.714 155.291V149.604H386.985V157H385.775L385.714 155.291ZM385.953 153.732L386.479 153.719C386.479 154.211 386.427 154.667 386.322 155.086C386.222 155.501 386.058 155.861 385.83 156.166C385.602 156.471 385.304 156.711 384.935 156.884C384.565 157.052 384.117 157.137 383.588 157.137C383.228 157.137 382.897 157.084 382.597 156.979C382.3 156.875 382.045 156.713 381.831 156.494C381.617 156.275 381.451 155.991 381.332 155.64C381.218 155.289 381.161 154.867 381.161 154.375V149.604H382.426V154.389C382.426 154.721 382.462 154.997 382.535 155.216C382.613 155.43 382.715 155.601 382.843 155.729C382.975 155.852 383.121 155.938 383.28 155.988C383.444 156.038 383.613 156.063 383.786 156.063C384.324 156.063 384.75 155.961 385.064 155.756C385.379 155.546 385.604 155.266 385.741 154.915C385.882 154.56 385.953 154.165 385.953 153.732ZM390.287 146.5V157H389.016V146.5H390.287Z" fill="#71717A"/>
<path d="M438 8C438 3.58172 441.582 0 446 0C450.418 0 454 3.58172 454 8V130H438V8Z" fill="#84CC16"/>
<path d="M454 43C454 38.5817 457.582 35 462 35C466.418 35 470 38.5817 470 43V130H454V43Z" fill="#F97316"/>
<path d="M449.832 154.095V147.047H451.145V154.095C451.145 154.751 451.01 155.305 450.741 155.756C450.472 156.207 450.101 156.551 449.627 156.788C449.158 157.021 448.618 157.137 448.007 157.137C447.396 157.137 446.854 157.032 446.38 156.822C445.906 156.613 445.535 156.294 445.266 155.865C444.997 155.437 444.862 154.897 444.862 154.245H446.182C446.182 154.664 446.259 155.008 446.414 155.277C446.569 155.546 446.783 155.744 447.057 155.872C447.335 156 447.651 156.063 448.007 156.063C448.353 156.063 448.663 155.991 448.937 155.845C449.215 155.694 449.433 155.473 449.593 155.182C449.752 154.885 449.832 154.523 449.832 154.095ZM457.714 155.291V149.604H458.985V157H457.775L457.714 155.291ZM457.953 153.732L458.479 153.719C458.479 154.211 458.427 154.667 458.322 155.086C458.222 155.501 458.058 155.861 457.83 156.166C457.602 156.471 457.304 156.711 456.935 156.884C456.565 157.052 456.117 157.137 455.588 157.137C455.228 157.137 454.897 157.084 454.597 156.979C454.3 156.875 454.045 156.713 453.831 156.494C453.617 156.275 453.451 155.991 453.332 155.64C453.218 155.289 453.161 154.867 453.161 154.375V149.604H454.426V154.389C454.426 154.721 454.462 154.997 454.535 155.216C454.613 155.43 454.715 155.601 454.843 155.729C454.975 155.852 455.121 155.938 455.28 155.988C455.444 156.038 455.613 156.063 455.786 156.063C456.324 156.063 456.75 155.961 457.064 155.756C457.379 155.546 457.604 155.266 457.741 154.915C457.882 154.56 457.953 154.165 457.953 153.732ZM462.287 146.5V157H461.016V146.5H462.287Z" fill="#71717A"/>
<path d="M510 8C510 3.58172 513.582 0 518 0C522.418 0 526 3.58172 526 8V130H510V8Z" fill="#84CC16"/>
<path d="M526 43C526 38.5817 529.582 35 534 35C538.418 35 542 38.5817 542 43V130H526V43Z" fill="#F97316"/>
<path d="M521.832 154.095V147.047H523.145V154.095C523.145 154.751 523.01 155.305 522.741 155.756C522.472 156.207 522.101 156.551 521.627 156.788C521.158 157.021 520.618 157.137 520.007 157.137C519.396 157.137 518.854 157.032 518.38 156.822C517.906 156.613 517.535 156.294 517.266 155.865C516.997 155.437 516.862 154.897 516.862 154.245H518.182C518.182 154.664 518.259 155.008 518.414 155.277C518.569 155.546 518.783 155.744 519.057 155.872C519.335 156 519.651 156.063 520.007 156.063C520.353 156.063 520.663 155.991 520.937 155.845C521.215 155.694 521.433 155.473 521.593 155.182C521.752 154.885 521.832 154.523 521.832 154.095ZM529.714 155.291V149.604H530.985V157H529.775L529.714 155.291ZM529.953 153.732L530.479 153.719C530.479 154.211 530.427 154.667 530.322 155.086C530.222 155.501 530.058 155.861 529.83 156.166C529.602 156.471 529.304 156.711 528.935 156.884C528.565 157.052 528.117 157.137 527.588 157.137C527.228 157.137 526.897 157.084 526.597 156.979C526.3 156.875 526.045 156.713 525.831 156.494C525.617 156.275 525.451 155.991 525.332 155.64C525.218 155.289 525.161 154.867 525.161 154.375V149.604H526.426V154.389C526.426 154.721 526.462 154.997 526.535 155.216C526.613 155.43 526.715 155.601 526.843 155.729C526.975 155.852 527.121 155.938 527.28 155.988C527.444 156.038 527.613 156.063 527.786 156.063C528.324 156.063 528.75 155.961 529.064 155.756C529.379 155.546 529.604 155.266 529.741 154.915C529.882 154.56 529.953 154.165 529.953 153.732ZM534.287 146.5V157H533.016V146.5H534.287Z" fill="#71717A"/>
</svg>
